<?xml version="1.0" encoding="iso-8859-1"?>
<!-- Generator: Adobe Illustrator 19.0.0, SVG Export Plug-In . SVG Version: 6.00 Build 0)  -->
<svg xmlns="http://www.w3.org/2000/svg" xmlns:xlink="http://www.w3.org/1999/xlink" version="1.1" id="Layer_1" x="0px" y="0px" viewBox="0 0 512 512" style="enable-background:new 0 0 512 512;" xml:space="preserve" width="512px" height="512px">
<g>
	<g>
		<path d="M466.808,442.032v-7.656c0-26.737-21.754-48.491-48.491-48.491H207.478l-90.875-70.996    c-21.07-16.46-51.603-12.712-68.065,8.359l-4.714,6.034l92.697,72.42l-16.354,25.017H50.808v15.313H83.79l-39.434,61.723    L57.26,512l44.701-69.968h86.183h219.852L452.699,512l12.905-8.244l-39.434-61.723h32.982H466.808z M138.462,426.719l10.17-15.557    l19.913,15.557H138.462z M193.418,426.719L66.022,327.191c11.73-9.383,28.814-9.874,41.155-0.234l95.029,74.241h216.112    c15.66,0,28.821,10.906,32.286,25.521H193.418z" fill="#4D5874"/>
	</g>
</g>
<g>
	<g>
		<path d="M405.873,51.219C364.536,18.19,311.311,0,256,0S147.465,18.19,106.128,51.22C66.105,83.199,43.151,124.86,43.151,165.522    v7.676l15.156-0.039l2.273-2.525c8.848-9.824,20.292-15.054,32.207-14.717c11.981,0.336,23.176,6.235,31.521,16.613l8.589,10.68    l6.328-7.872c8.498-10.569,21.148-16.631,34.709-16.631s26.213,6.062,34.71,16.631l6.325,7.866l6.331-7.864    c7.09-8.818,17.075-14.483,28.063-16.123v213.906h15.313V159.571c10.188,2.003,19.391,7.497,26.041,15.769l6.327,7.88l6.324-7.87    c8.498-10.57,21.149-16.633,34.711-16.633s26.215,6.062,34.71,16.63l6.322,7.87l8.582-10.675    c8.346-10.379,19.539-16.281,31.519-16.615c11.929-0.332,23.356,4.894,32.204,14.719l2.281,2.533h15.148v-7.656    C468.85,124.859,445.896,83.198,405.873,51.219z M125.329,152.229c-9.422-7.238-20.451-11.291-32.114-11.617    c-12.032-0.33-23.607,3.315-33.612,10.451c8.059-51.728,58.199-104.736,129.364-126.026c-9.447,7.582-18.322,16.8-26.428,27.558    C141.221,80.891,127.997,116.577,125.329,152.229z M204.647,151.864c-9.154-5.482-19.706-8.467-30.712-8.467    c-12.074,0.001-23.6,3.588-33.332,10.13c4.448-58.352,40.604-119.007,90.713-134.456c-5.1,8.939-9.693,20.994-13.751,36.15    C210.201,82.728,205.617,117.312,204.647,151.864z M256.011,143.4c-13.253,0-25.85,4.318-36.132,12.129    c0.73-34.459,5.179-69.086,12.478-96.348c9.291-34.7,19.529-43.868,23.644-43.868s14.353,9.168,23.644,43.867    c7.298,27.258,11.746,61.878,12.477,96.332C281.844,147.712,269.253,143.4,256.011,143.4z M338.082,143.403    c-11.012,0-21.57,2.989-30.727,8.477c-0.969-34.558-5.552-69.148-12.919-96.66c-4.058-15.155-8.651-27.21-13.751-36.149    c50.107,15.449,86.263,76.1,90.712,134.45C361.669,146.986,350.146,143.403,338.082,143.403z M418.788,140.618    c-11.664,0.327-22.694,4.38-32.116,11.62c-2.665-35.656-15.89-71.346-37.211-99.646c-8.106-10.758-16.981-19.977-26.429-27.559    c71.172,21.291,121.315,74.304,129.367,126.036C442.395,143.935,430.829,140.295,418.788,140.618z" fill="#4D5874"/>
	</g>
</g>
<g>
</g>
<g>
</g>
<g>
</g>
<g>
</g>
<g>
</g>
<g>
</g>
<g>
</g>
<g>
</g>
<g>
</g>
<g>
</g>
<g>
</g>
<g>
</g>
<g>
</g>
<g>
</g>
<g>
</g>
</svg>
