<?xml version="1.0" encoding="iso-8859-1"?>
<!-- Generator: Adobe Illustrator 19.0.0, SVG Export Plug-In . SVG Version: 6.00 Build 0)  -->
<svg xmlns="http://www.w3.org/2000/svg" xmlns:xlink="http://www.w3.org/1999/xlink" version="1.1" id="Capa_1" x="0px" y="0px" viewBox="0 0 366.67 366.67" style="enable-background:new 0 0 366.67 366.67;" xml:space="preserve" width="512px" height="512px">
<g>
	<g>
		<path d="M348.672,281.127c-0.512-0.512-0.512-0.512-1.024-0.512l-7.168,1.024l-5.12-5.632c-0.512-0.512-1.024-0.512-1.536-0.512    s-1.024,0.512-1.024,1.024l-1.024,7.168l-6.656,3.072c-0.512,0-0.512,0.512-0.512,1.024c-0.512,1.536-0.512,2.048,0,2.048    l6.656,3.584l1.024,7.168c0,0.512,0.512,1.024,1.024,1.024h0.512c0.512,0,0.512,0,1.024-0.512l5.12-5.12l7.168,1.536    c0.512,0,1.024,0,1.024-0.512c0.512-0.512,0.512-1.024,0-1.536l-3.072-6.144l3.584-6.656    C348.672,282.151,348.672,281.639,348.672,281.127z" fill="#FFFFFF"/>
	</g>
</g>
<g>
	<g>
		<path d="M361.984,49.191h-20.48v-7.168c0-3.072-2.048-5.12-5.12-5.12c-3.072,0-5.12,2.048-5.12,5.12v7.168h-14.848v-7.168    c0-3.072-2.048-5.12-5.12-5.12c-3.072,0-5.12,2.048-5.12,5.12v7.168h-15.36v-7.168c0-3.072-2.048-5.12-5.12-5.12    c-3.072,0-5.12,2.048-5.12,5.12v7.168h-15.36v-7.168c0-3.072-2.048-5.12-5.12-5.12c-3.072,0-5.12,2.048-5.12,5.12v7.168h-15.36    v-7.168c0-3.072-2.048-5.12-5.12-5.12c-3.072,0-5.12,2.048-5.12,5.12v7.168h-15.36v-7.168c0-3.072-2.048-5.12-5.12-5.12    c-3.072,0-5.12,2.048-5.12,5.12v7.168h-15.36v-7.168c0-3.072-2.048-5.12-5.12-5.12c-3.072,0-5.12,2.048-5.12,5.12v7.168h-15.36    v-7.168c0-3.072-2.048-5.12-5.12-5.12c-3.072,0-5.12,2.048-5.12,5.12v7.168h-15.36v-7.168c0-3.072-2.048-5.12-5.12-5.12    c-3.072,0-5.12,2.048-5.12,5.12v7.168h-15.36v-7.168c0-3.072-2.048-5.12-5.12-5.12c-3.072,0-5.12,2.048-5.12,5.12v7.168h-15.36    v-7.168c0-3.072-2.048-5.12-5.12-5.12c-3.072,0-5.12,2.048-5.12,5.12v7.168h-15.36v-7.168c0-3.072-2.048-5.12-5.12-5.12    s-5.12,2.048-5.12,5.12v7.168h-15.36v-7.168c0-3.072-2.048-5.12-5.12-5.12c-3.072,0-5.12,2.048-5.12,5.12v7.168H5.12    c-3.072,0-5.12,2.048-5.12,5.12v270.336c0,3.072,2.048,5.12,5.12,5.12h356.352c3.072,0,5.12-2.048,5.12-5.12V54.311    C367.104,51.239,365.056,49.191,361.984,49.191z M10.752,59.431h14.336v7.168c0,3.072,2.048,5.12,5.12,5.12    c3.072,0,5.12-2.048,5.12-5.12v-7.168h15.36v7.168v47.616H10.752V59.431z M10.752,124.455h39.936v61.952H10.752V124.455z     M10.752,196.135h39.936v57.344H10.752V196.135z M10.752,319.527v-55.296h39.936v54.272c0,0.512,0,1.024,0.512,1.024H10.752z     M60.928,66.087v-7.168h15.36v7.168c0,3.072,2.048,5.12,5.12,5.12s5.12-2.048,5.12-5.12v-7.168h15.36v7.168v47.616h-40.96V66.087z     M60.928,124.455h40.96v61.952h-40.96V124.455z M60.928,196.135h40.96v57.344h-40.96V196.135z M60.416,319.527    c0-0.512,0.512-1.024,0.512-1.024v-54.272h40.96v54.272c0,0.512,0,1.024,0.512,1.024H60.416z M111.616,66.087v-7.168h15.36v7.168    c0,3.072,2.048,5.12,5.12,5.12c3.072,0,5.12-2.048,5.12-5.12v-7.168h15.36v7.168v47.616h-40.96V66.087z M111.616,124.455h40.96    v61.952h-40.96V124.455z M111.616,196.135h40.96v57.344h-40.96V196.135z M111.616,319.527c0-0.512,0.512-1.024,0.512-1.024    v-54.272h40.96v54.272c0,0.512,0,1.024,0.512,1.024H111.616z M162.816,66.087v-7.168h15.36v7.168c0,3.072,2.048,5.12,5.12,5.12    c3.072,0,5.12-2.048,5.12-5.12v-7.168h15.36v7.168v47.616h-40.96V66.087z M162.816,124.455h40.96v61.952h-40.96V124.455z     M162.816,196.135h40.96v57.344h-40.96V196.135z M162.816,319.527c0-0.512,0.512-1.024,0.512-1.024v-54.272h40.96v54.272    c0,0.512,0,1.024,0.512,1.024H162.816z M214.016,66.087L214.016,66.087l0-7.168h15.36v7.168c0,3.072,2.048,5.12,5.12,5.12    c3.072,0,5.12-2.048,5.12-5.12v-7.168h15.36v7.168v47.616h-40.96V66.087z M214.016,124.455L214.016,124.455h40.96v61.952h-40.96    V124.455z M214.016,196.135L214.016,196.135h40.96v57.344h-40.96V196.135z M214.016,319.527c0-0.512,0.512-1.024,0.512-1.024    v-54.272h40.96v54.272c0,0.512,0,1.024,0.512,1.024H214.016z M265.216,66.087v-7.168h15.36v7.168c0,3.072,2.048,5.12,5.12,5.12    c3.072,0,5.12-2.048,5.12-5.12v-7.168h15.36v7.168v47.616h-40.96V66.087z M265.216,124.455h40.96v61.952h-40.96V124.455z     M265.216,196.135h40.96v57.344h-40.96V196.135z M264.704,319.527c0-0.512,0.512-1.024,0.512-1.024v-54.272h40.96v54.272    c0,0.512,0,1.024,0.512,1.024H264.704z M356.864,319.527h-40.96c0-0.512,0.512-1.024,0.512-1.024v-54.272h40.448V319.527z     M356.864,253.991h-40.448v-57.856h40.448V253.991z M356.864,185.895h-40.448v-61.44h40.448V185.895z M356.864,114.215h-40.448    V66.599v-7.168h14.848v7.168c0,3.072,2.048,5.12,5.12,5.12c3.072,0,5.12-2.048,5.12-5.12v-7.168h15.36V114.215z" fill="#FFFFFF"/>
	</g>
</g>
<g>
</g>
<g>
</g>
<g>
</g>
<g>
</g>
<g>
</g>
<g>
</g>
<g>
</g>
<g>
</g>
<g>
</g>
<g>
</g>
<g>
</g>
<g>
</g>
<g>
</g>
<g>
</g>
<g>
</g>
</svg>
